<?xml version="1.0" standalone="no"?>
<!DOCTYPE svg PUBLIC "-//W3C//DTD SVG 20010904//EN"
 "http://www.w3.org/TR/2001/REC-SVG-20010904/DTD/svg10.dtd">
<svg version="1.0" xmlns="http://www.w3.org/2000/svg"
 width="300.000000pt" height="300.000000pt" viewBox="0 0 300.000000 300.000000"
 preserveAspectRatio="xMidYMid meet">
<metadata>
Created by potrace 1.10, written by Peter Selinger 2001-2011
</metadata>
<g transform="translate(0.000000,300.000000) scale(0.100000,-0.100000)"
fill="#000000" stroke="none">
<path d="M915 2526 c-314 -182 -635 -370 -715 -416 l-145 -85 -3 -84 c-2 -64
1 -89 13 -108 20 -29 79 -56 106 -48 19 6 19 -7 19 -664 l0 -671 -41 0 c-31 0
-47 -6 -70 -29 -28 -28 -29 -34 -29 -115 0 -164 3 -166 325 -166 322 0 325 2
325 166 0 81 -1 87 -29 115 -23 23 -39 29 -70 29 l-41 0 0 668 0 667 940 0
940 0 0 -667 0 -668 -41 0 c-31 0 -47 -6 -70 -29 -28 -28 -29 -34 -29 -115 0
-164 3 -166 325 -166 322 0 325 2 325 166 0 81 -1 87 -29 115 -23 23 -39 29
-70 29 l-41 0 0 671 c0 657 0 670 19 664 27 -8 86 19 106 48 12 19 15 44 13
108 l-3 84 -135 79 c-765 447 -1302 756 -1312 755 -7 0 -269 -150 -583 -333z
m996 -7 c228 -133 504 -293 614 -356 110 -63 202 -117 204 -119 2 -2 -551 -4
-1230 -4 l-1234 0 40 24 c22 13 225 130 450 261 310 180 720 420 741 434 1 1
188 -107 415 -240z m-1640 -438 c-26 -36 -26 -39 1 -68 l21 -23 -69 0 c-73 0
-89 -7 -118 -50 l-16 -24 0 34 c0 19 4 41 8 47 6 10 180 113 190 113 2 0 -6
-13 -17 -29z m2573 -43 l68 -40 -4 -70 c-3 -54 -8 -73 -23 -84 -27 -20 -32 -8
-7 19 29 31 28 72 -3 102 -21 22 -33 25 -96 25 l-72 0 21 23 c27 29 27 37 0
72 l-21 27 34 -17 c19 -10 65 -35 103 -57z m16 -123 l0 -35 -1360 0 -1360 0 0
35 0 35 1360 0 1360 0 0 -35z m-2580 -91 c0 -3 -10 -18 -23 -33 l-22 -26 -28
32 -29 33 51 0 c28 0 51 -3 51 -6z m280 0 c0 -3 -10 -18 -22 -33 l-23 -27 -22
27 c-13 15 -23 30 -23 33 0 3 20 6 45 6 25 0 45 -3 45 -6z m1970 0 c0 -3 -10
-18 -22 -33 l-23 -27 -22 27 c-13 15 -23 30 -23 33 0 3 20 6 45 6 25 0 45 -3
45 -6z m263 -27 l-28 -32 -22 26 c-13 15 -23 30 -23 33 0 3 23 6 51 6 l51 0
-29 -33z m-2323 -679 l0 -668 -95 0 -95 0 0 668 0 667 95 0 95 0 0 -667z
m2250 0 l0 -668 -95 0 -95 0 0 668 0 667 95 0 95 0 0 -667z m-2440 -713 c0 -3
-20 -5 -45 -5 -25 0 -45 2 -45 5 0 3 10 20 22 39 l22 33 23 -34 c13 -19 23
-36 23 -38z m280 1 c0 -4 -21 -6 -46 -6 -25 0 -44 3 -42 8 2 4 12 21 23 39
l19 31 23 -33 c13 -19 23 -36 23 -39z m2250 0 c0 -4 -21 -6 -46 -6 -25 0 -44
3 -42 8 2 4 12 21 23 39 l19 31 23 -33 c13 -19 23 -36 23 -39z m-280 2 c0 -5
-20 -8 -45 -8 -25 0 -45 3 -45 6 0 3 10 19 21 36 l22 30 23 -29 c13 -15 23
-31 24 -35z m-2410 -33 c-27 -29 -37 -27 -20 4 6 12 18 21 27 21 13 0 12 -5
-7 -25z m528 0 c19 -42 15 -139 -7 -166 -11 -13 -22 -21 -26 -17 -4 3 3 16 14
27 30 30 30 125 -1 158 -16 18 -18 23 -6 23 8 0 20 -11 26 -25z m1724 2 c-30
-32 -31 -118 -2 -154 11 -15 18 -29 14 -32 -3 -3 -14 5 -25 18 -14 17 -19 39
-19 88 0 70 12 103 37 103 14 0 13 -4 -5 -23z m522 1 c33 -47 13 -188 -26
-188 -6 0 -2 10 10 23 30 32 31 123 1 161 -11 14 -16 26 -10 26 5 0 17 -10 25
-22z m-2286 -80 l-3 -63 -230 0 -230 0 -3 63 -3 62 236 0 236 0 -3 -62z m2250
0 l-3 -63 -230 0 -230 0 -3 63 -3 62 236 0 236 0 -3 -62z"/>
<path d="M1455 2541 c-107 -27 -175 -112 -175 -218 1 -130 92 -223 220 -223
128 0 219 93 220 223 0 65 -21 117 -67 158 -55 52 -135 76 -198 60z m105 -104
c36 -18 70 -74 70 -116 0 -45 -30 -95 -69 -116 -119 -61 -242 76 -168 186 27
41 60 59 107 59 19 0 46 -6 60 -13z"/>
<path d="M1045 1461 c-220 -58 -406 -110 -412 -114 -19 -12 -16 -65 4 -75 10
-5 68 -21 128 -36 l110 -27 -3 -208 c-3 -188 -1 -209 15 -228 15 -17 60 -29
248 -64 309 -58 386 -58 684 0 118 22 217 41 222 41 4 0 15 7 23 16 14 13 16
48 16 229 l0 213 44 11 c24 6 51 13 60 17 14 6 16 -10 16 -155 l0 -162 -32
-17 c-68 -37 -68 -37 -68 -207 0 -142 2 -157 20 -175 26 -26 29 -26 78 10 48
34 55 36 73 14 24 -29 67 -46 89 -34 19 10 20 21 20 180 l0 169 -26 20 c-14
11 -34 23 -45 26 -18 6 -19 18 -19 183 0 174 0 177 23 187 28 13 33 46 10 66
-21 18 -808 229 -850 228 -15 0 -208 -49 -428 -108z m712 -55 c153 -41 295
-78 316 -81 40 -8 51 -25 15 -25 -13 0 -155 -36 -316 -79 l-293 -78 -297 78
c-163 44 -305 79 -314 79 -45 0 -10 18 75 38 50 13 189 49 307 82 118 32 218
59 222 59 3 1 132 -32 285 -73z m-907 -61 c-36 -39 -17 -69 60 -93 34 -10 61
-22 61 -26 0 -4 -11 -20 -24 -36 l-25 -29 -15 40 c-17 44 -27 49 -144 80 -46
12 -83 25 -83 30 0 8 107 43 160 52 14 2 27 5 29 6 3 0 -6 -10 -19 -24z m1378
-11 c54 -16 61 -26 37 -58 -8 -11 -15 -29 -15 -40 0 -18 -3 -17 -29 8 -27 26
-34 28 -76 22 -25 -4 -57 -18 -73 -31 l-27 -23 -5 -209 -5 -208 -24 -3 -24 -4
22 30 c19 28 21 43 21 191 0 160 0 162 -25 187 -14 14 -23 29 -20 34 3 4 27
13 54 20 27 6 59 22 72 36 l22 24 -21 23 c-12 13 -22 26 -22 29 0 7 59 -6 138
-28z m-1001 -221 l252 -66 233 62 c128 34 243 64 256 67 l22 6 0 -173 0 -174
-217 -40 c-275 -50 -319 -50 -590 1 l-212 39 -3 173 c-2 94 -1 172 2 172 3 0
118 -30 257 -67z m1082 -256 l31 -27 0 -135 c0 -94 -3 -135 -11 -135 -7 0 -27
10 -47 22 l-35 21 -44 -23 c-51 -27 -63 -20 -63 37 0 40 12 48 35 23 14 -15
31 -20 71 -20 71 0 84 18 84 121 0 74 -1 78 -31 103 -42 36 -79 34 -118 -6
-17 -17 -33 -29 -37 -26 -3 4 17 29 45 57 28 28 51 57 51 64 0 6 8 -1 19 -18
10 -16 32 -42 50 -58z m-1350 -65 c-20 -8 -39 8 -39 33 l0 26 24 -28 c14 -15
20 -30 15 -31z m1331 -70 c0 -85 0 -85 -20 -67 -17 15 -24 16 -46 7 -13 -7
-26 -12 -27 -12 -1 0 -1 37 0 82 2 74 4 83 24 94 19 10 27 9 46 -3 21 -14 23
-23 23 -101z"/>
</g>
</svg>
