<?xml version="1.0" standalone="no"?>
<!DOCTYPE svg PUBLIC "-//W3C//DTD SVG 20010904//EN"
 "http://www.w3.org/TR/2001/REC-SVG-20010904/DTD/svg10.dtd">
<svg version="1.0" xmlns="http://www.w3.org/2000/svg"
 width="300.000000pt" height="300.000000pt" viewBox="0 0 300.000000 300.000000"
 preserveAspectRatio="xMidYMid meet">
<metadata>
Created by potrace 1.10, written by Peter Selinger 2001-2011
</metadata>
<g transform="translate(0.000000,300.000000) scale(0.100000,-0.100000)"
fill="#000000" stroke="none">
<path d="M794 2856 c-42 -19 -93 -83 -100 -127 l-6 -37 -132 -4 c-105 -3 -140
-8 -177 -25 -63 -28 -125 -86 -157 -147 l-27 -51 0 -965 0 -965 27 -51 c32
-60 93 -118 157 -148 45 -21 57 -21 655 -24 680 -3 656 -5 656 63 0 67 24 65
-641 65 l-596 0 -44 23 c-33 18 -51 37 -71 76 l-28 53 0 734 0 734 1095 0
1095 0 0 -345 c0 -332 1 -346 20 -365 25 -25 51 -25 79 -2 l22 17 -1 536 c0
610 2 593 -81 683 -74 81 -123 99 -287 104 l-132 4 0 25 c0 30 -15 60 -49 96
-38 42 -73 57 -131 57 -92 0 -159 -50 -182 -136 l-12 -44 -342 0 -341 0 -6 38
c-8 46 -59 110 -103 128 -42 18 -120 17 -160 0z m154 -46 c33 -20 72 -74 72
-99 0 -8 10 -25 22 -38 l21 -23 342 0 c341 0 342 0 362 23 11 12 26 38 32 58
27 85 123 123 207 83 34 -16 74 -68 74 -96 0 -9 9 -26 19 -40 19 -23 28 -25
143 -31 146 -8 202 -24 256 -77 80 -79 77 -49 80 -644 2 -521 -1 -580 -28
-536 -6 9 -10 154 -10 339 0 320 0 325 -22 348 l-21 23 -1093 0 -1093 0 -21
-27 c-21 -26 -21 -27 -18 -767 l3 -741 28 -48 c32 -54 94 -104 141 -112 17 -3
292 -6 611 -8 536 -2 580 -3 583 -19 2 -12 -6 -19 -30 -23 -18 -3 -287 -5
-598 -3 -449 3 -573 7 -603 18 -51 18 -122 82 -150 134 l-22 41 0 955 0 955
22 40 c56 105 130 142 304 151 105 6 127 10 147 27 12 11 22 28 22 36 0 27 38
80 72 101 19 11 51 20 73 20 22 0 54 -9 73 -20z"/>
<path d="M829 2775 c-39 -21 -59 -72 -59 -150 0 -78 18 -124 59 -148 43 -25
67 -21 109 17 l37 34 0 90 c0 99 -13 135 -57 158 -34 17 -56 17 -89 -1z m91
-45 c17 -17 20 -33 20 -105 0 -94 -16 -125 -65 -125 -49 0 -65 31 -65 125 0
94 16 125 65 125 14 0 34 -9 45 -20z"/>
<path d="M1874 2756 c-34 -34 -34 -34 -34 -131 0 -97 0 -97 34 -131 37 -37 62
-42 106 -19 44 23 60 63 60 150 0 87 -16 127 -60 150 -44 23 -69 18 -106 -19z
m106 -26 c17 -17 20 -33 20 -105 0 -94 -16 -125 -64 -125 -44 0 -66 43 -66
125 0 58 4 78 21 99 25 31 61 34 89 6z"/>
<path d="M399 2577 c-53 -28 -104 -92 -120 -149 -6 -23 -9 -86 -7 -140 3 -86
6 -100 26 -120 l23 -23 1083 0 1084 0 26 24 c25 23 26 29 26 135 0 96 -3 118
-24 161 -50 106 -107 135 -268 135 -130 0 -151 -9 -168 -68 -38 -143 -236
-152 -281 -13 -6 20 -21 46 -32 59 -20 22 -21 22 -362 22 l-342 0 -21 -23
c-12 -13 -22 -30 -22 -38 0 -25 -39 -79 -72 -99 -42 -26 -104 -26 -146 0 -34
21 -72 74 -72 101 0 8 -10 25 -23 37 -21 20 -34 22 -144 22 -106 0 -125 -3
-164 -23z m294 -54 c8 -47 59 -111 103 -129 43 -18 115 -18 158 0 44 18 95 82
103 129 l6 37 341 0 342 0 12 -44 c23 -86 90 -136 182 -136 58 0 93 15 131 57
35 37 49 66 49 97 l0 26 123 0 c119 0 125 -1 169 -29 70 -45 88 -91 88 -232
l0 -114 -1095 0 -1095 0 0 111 c0 103 2 116 28 165 42 81 84 99 232 99 l117 0
6 -37z"/>
<path d="M542 1776 l-37 -34 -3 -131 c-3 -107 -1 -136 14 -166 26 -56 54 -65
208 -65 130 0 136 1 165 26 43 36 53 81 49 211 -2 94 -6 116 -24 140 -35 47
-58 53 -202 53 l-132 0 -38 -34z m325 -30 c28 -24 28 -25 28 -151 0 -126 0
-127 -28 -151 -26 -23 -35 -24 -150 -24 -169 1 -177 9 -177 179 0 103 1 111
26 140 l26 31 123 0 c117 0 126 -1 152 -24z"/>
<path d="M612 1707 c-19 -20 -22 -35 -22 -115 0 -124 8 -132 128 -132 80 0 91
2 110 23 19 20 22 35 22 114 0 87 -1 93 -26 112 -22 17 -41 21 -109 21 -72 0
-84 -3 -103 -23z m203 -112 l0 -95 -97 0 -98 0 0 95 0 95 98 0 97 0 0 -95z"/>
<path d="M1248 1794 c-48 -26 -58 -60 -58 -199 0 -202 13 -215 221 -215 l141
0 34 34 34 34 0 141 c0 155 -7 179 -61 207 -40 20 -273 19 -311 -2z m313 -53
c16 -20 19 -40 19 -148 0 -118 -1 -125 -25 -148 -23 -24 -30 -25 -150 -25
-120 0 -127 1 -150 25 -24 23 -25 30 -25 147 1 174 7 179 188 176 116 -3 125
-4 143 -27z"/>
<path d="M1300 1710 c-27 -27 -33 -58 -28 -141 5 -98 19 -109 138 -109 84 0
90 1 109 26 18 22 21 41 21 111 0 76 -2 86 -25 108 -22 23 -32 25 -110 25 -71
0 -88 -3 -105 -20z m200 -115 l0 -95 -95 0 -95 0 0 95 0 95 95 0 95 0 0 -95z"/>
<path d="M1939 1795 c-52 -28 -59 -52 -59 -206 l0 -141 34 -34 34 -34 141 0
c209 0 221 12 221 217 -1 139 -7 161 -56 194 -25 16 -47 19 -159 19 -93 -1
-137 -5 -156 -15z m302 -54 c29 -29 29 -30 29 -151 0 -115 -1 -122 -25 -145
-23 -24 -30 -25 -148 -25 -111 0 -127 2 -151 21 -26 20 -26 22 -26 145 0 70 5
134 11 145 16 31 45 38 167 38 112 1 114 1 143 -28z"/>
<path d="M1985 1705 c-23 -22 -25 -32 -25 -113 0 -80 2 -91 23 -110 20 -19 35
-22 109 -22 116 0 131 11 136 109 8 138 -11 161 -133 161 -78 0 -88 -2 -110
-25z m205 -110 l0 -95 -95 0 -95 0 0 95 0 95 95 0 95 0 0 -95z"/>
<path d="M2220 1243 c-60 -10 -153 -47 -207 -82 -308 -201 -351 -612 -93 -872
108 -108 234 -159 396 -159 157 0 288 55 397 168 107 112 157 234 157 386 0
162 -51 288 -159 396 -130 129 -319 192 -491 163z m241 -57 c163 -49 300 -184
349 -344 24 -76 27 -211 6 -288 -34 -130 -137 -260 -252 -321 -264 -140 -586
-40 -714 221 -53 108 -68 197 -52 307 33 225 201 399 425 439 64 11 176 4 238
-14z"/>
<path d="M2213 1155 c-92 -20 -175 -69 -243 -142 -102 -108 -135 -199 -128
-353 3 -88 7 -105 40 -171 46 -93 92 -146 169 -198 187 -125 417 -105 583 50
158 147 198 361 105 554 -96 198 -318 307 -526 260z m232 -52 c218 -67 348
-304 290 -528 -82 -313 -475 -431 -712 -212 -151 139 -189 336 -101 517 94
194 313 287 523 223z"/>
<path d="M2464 861 c-16 -10 -71 -61 -122 -114 l-92 -97 -48 50 c-34 35 -56
50 -75 50 -30 0 -67 -35 -67 -64 0 -29 160 -186 190 -186 35 0 310 275 310
310 0 54 -49 80 -96 51z m44 -57 c-5 -23 -240 -254 -259 -254 -15 0 -129 108
-137 131 -2 5 4 12 12 15 11 4 32 -8 61 -35 24 -22 54 -41 66 -41 13 0 61 38
130 106 98 95 136 119 127 78z"/>
<path d="M559 1105 c-49 -27 -61 -71 -57 -216 l3 -131 37 -34 38 -34 132 0
c144 0 167 6 202 53 18 24 22 46 24 140 4 130 -6 175 -49 211 -30 25 -35 26
-167 26 -99 -1 -144 -5 -163 -15z m308 -49 c26 -23 28 -30 32 -116 4 -113 -4
-156 -34 -186 -23 -23 -31 -24 -145 -24 -121 0 -122 0 -151 29 -29 29 -29 31
-29 141 0 171 8 179 177 180 115 0 124 -1 150 -24z"/>
<path d="M610 1020 c-17 -17 -20 -33 -20 -113 0 -85 2 -96 23 -115 20 -19 35
-22 108 -22 76 0 88 2 107 23 19 20 22 35 22 113 0 82 -2 93 -23 112 -20 19
-35 22 -110 22 -74 0 -90 -3 -107 -20z m202 -115 l-3 -95 -95 0 -94 0 0 95 0
95 98 0 97 0 -3 -95z"/>
<path d="M1238 1097 c-42 -36 -48 -58 -48 -192 0 -199 16 -215 215 -215 202 0
215 13 215 221 l0 141 -34 34 -34 34 -143 0 c-135 0 -146 -2 -171 -23z m317
-42 c24 -23 25 -30 25 -148 0 -171 0 -171 -150 -175 -128 -4 -152 0 -180 30
-18 19 -20 35 -20 145 0 118 1 125 25 148 23 24 30 25 150 25 120 0 127 -1
150 -25z"/>
<path d="M1294 1019 c-13 -15 -20 -40 -22 -90 -8 -136 11 -159 133 -159 78 0
88 2 110 25 23 22 25 32 25 108 0 70 -3 89 -21 111 -19 25 -25 26 -113 26 -81
0 -95 -3 -112 -21z m206 -114 l0 -95 -95 0 -95 0 0 95 0 95 95 0 95 0 0 -95z"/>
</g>
</svg>
